ply
format ascii 1.0
element vertex 128
property float x
property float y
property float z
element face 252
property list uchar int vertex_index
end_header
-0.0 0.0 0.0
0.0 0.0 0.4000000059604645
0.0 0.0 0.6000000238418579
0.0 0.20000000298023224 0.4000000059604645
0.0 0.20000000298023224 0.6000000238418579
0.0 0.4000000059604645 0.0
0.0 0.4000000059604645 0.20000000298023224
0.0 0.4000000059604645 0.4000000059604645
0.0 0.4000000059604645 0.6000000238418579
0.0 0.6000000238418579 0.0
0.0 0.6000000238418579 0.20000000298023224
0.0 0.6000000238418579 0.4000000059604645
0.0 0.6000000238418579 0.6000000238418579
0.20000000298023224 0.0 0.0
0.20000000298023224 0.0 0.20000000298023224
0.20000000298023224 0.0 0.4000000059604645
0.20000000298023224 0.0 0.6000000238418579
0.20000000298023224 0.20000000298023224 0.0
0.20000000298023224 0.4000000059604645 0.0
0.20000000298023224 0.6000000238418579 0.0
0.4000000059604645 0.0 0.0
0.4000000059604645 0.0 0.20000000298023224
0.4000000059604645 0.0 0.4000000059604645
0.4000000059604645 0.0 0.6000000238418579
0.4000000059604645 0.20000000298023224 0.0
0.4000000059604645 0.4000000059604645 0.0
0.4000000059604645 0.6000000238418579 0.0
0.6000000238418579 0.0 0.0
0.6000000238418579 0.0 0.20000000298023224
0.6000000238418579 0.0 0.4000000059604645
0.6000000238418579 0.0 0.6000000238418579
0.6000000238418579 0.20000000298023224 0.0
0.6000000238418579 0.4000000059604645 0.0
0.6000000238418579 0.6000000238418579 0.0
1.0 -0.0 0.0
0.800000011920929 0.0 0.20000000298023224
0.800000011920929 0.0 0.4000000059604645
0.800000011920929 0.0 0.6000000238418579
0.800000011920929 0.20000000298023224 0.0
0.800000011920929 0.4000000059604645 0.0
0.800000011920929 0.6000000238418579 0.0
1.0 0.0 0.4000000059604645
1.0 0.0 0.6000000238418579
1.0 0.20000000298023224 0.20000000298023224
1.0 0.20000000298023224 0.4000000059604645
1.0 0.20000000298023224 0.6000000238418579
1.0 0.4000000059604645 0.0
1.0 0.4000000059604645 0.20000000298023224
1.0 0.4000000059604645 0.4000000059604645
1.0 0.4000000059604645 0.6000000238418579
1.0 0.6000000238418579 0.0
1.0 0.6000000238418579 0.20000000298023224
1.0 0.6000000238418579 0.4000000059604645
1.0 0.6000000238418579 0.6000000238418579
-0.0 1.0 0.0
0.0 0.800000011920929 0.20000000298023224
0.0 0.800000011920929 0.4000000059604645
0.0 0.800000011920929 0.6000000238418579
0.0 1.0 0.4000000059604645
0.0 1.0 0.6000000238418579
0.20000000298023224 0.800000011920929 0.0
0.20000000298023224 1.0 0.20000000298023224
0.20000000298023224 1.0 0.4000000059604645
0.20000000298023224 1.0 0.6000000238418579
0.4000000059604645 0.800000011920929 0.0
0.4000000059604645 1.0 0.0
0.4000000059604645 1.0 0.20000000298023224
0.4000000059604645 1.0 0.4000000059604645
0.4000000059604645 1.0 0.6000000238418579
0.6000000238418579 0.800000011920929 0.0
0.6000000238418579 1.0 0.0
0.6000000238418579 1.0 0.20000000298023224
0.6000000238418579 1.0 0.4000000059604645
0.6000000238418579 1.0 0.6000000238418579
1.0 1.0 -0.0
0.800000011920929 1.0 0.10000000149011612
0.800000011920929 1.0 0.4000000059604645
0.800000011920929 1.0 0.6000000238418579
1.0 0.800000011920929 0.0
1.0 0.800000011920929 0.20000000298023224
1.0 0.800000011920929 0.4000000059604645
1.0 0.800000011920929 0.6000000238418579
1.0 1.0 0.4000000059604645
1.0 1.0 0.6000000238418579
-0.0 0.0 1.0
0.0 0.20000000298023224 0.800000011920929
0.0 0.4000000059604645 0.800000011920929
0.0 0.4000000059604645 1.0
0.0 0.6000000238418579 0.800000011920929
0.0 0.6000000238418579 1.0
0.20000000298023224 0.0 0.800000011920929
0.20000000298023224 0.20000000298023224 1.0
0.20000000298023224 0.4000000059604645 1.0
0.20000000298023224 0.6000000238418579 1.0
0.4000000059604645 0.0 0.800000011920929
0.4000000059604645 0.0 1.0
0.4000000059604645 0.20000000298023224 1.0
0.4000000059604645 0.4000000059604645 1.0
0.4000000059604645 0.6000000238418579 1.0
0.6000000238418579 0.0 0.800000011920929
0.6000000238418579 0.0 1.0
0.6000000238418579 0.20000000298023224 1.0
0.6000000238418579 0.4000000059604645 1.0
0.6000000238418579 0.6000000238418579 1.0
1.0 -0.0 1.0
0.800000011920929 0.10000000149011612 1.0
0.800000011920929 0.4000000059604645 1.0
0.800000011920929 0.6000000238418579 1.0
1.0 0.0 0.800000011920929
1.0 0.20000000298023224 0.800000011920929
1.0 0.4000000059604645 0.800000011920929
1.0 0.4000000059604645 1.0
1.0 0.6000000238418579 0.800000011920929
1.0 0.6000000238418579 1.0
-0.0 1.0 1.0
0.10000000149011612 0.800000011920929 1.0
0.0 1.0 0.800000011920929
0.20000000298023224 1.0 0.800000011920929
0.4000000059604645 0.800000011920929 1.0
0.4000000059604645 1.0 0.800000011920929
0.4000000059604645 1.0 1.0
0.6000000238418579 0.800000011920929 1.0
0.6000000238418579 1.0 0.800000011920929
0.6000000238418579 1.0 1.0
0.8999999761581421 0.800000011920929 1.0
0.800000011920929 1.0 0.800000011920929
1.0 0.800000011920929 0.800000011920929
1.0 1.0 0.800000011920929
3 0 13 17
3 0 17 18
3 0 5 18
3 5 18 19
3 5 9 19
3 13 20 24
3 13 17 24
3 17 24 25
3 17 18 25
3 18 25 26
3 18 19 26
3 20 27 31
3 20 24 31
3 24 31 32
3 24 25 32
3 25 32 33
3 25 26 33
3 0 13 14
3 0 14 15
3 0 1 15
3 1 15 16
3 1 2 16
3 13 20 21
3 13 14 21
3 14 21 22
3 14 15 22
3 15 22 23
3 15 16 23
3 20 27 28
3 20 21 28
3 21 28 29
3 21 22 29
3 22 29 30
3 22 23 30
3 0 1 3
3 1 3 4
3 1 2 4
3 0 5 6
3 0 6 7
3 0 3 7
3 3 7 8
3 3 4 8
3 5 9 10
3 5 6 10
3 6 10 11
3 6 7 11
3 7 11 12
3 7 8 12
3 27 34 38
3 27 31 38
3 31 38 39
3 31 32 39
3 32 39 40
3 32 33 40
3 34 38 46
3 38 39 46
3 39 46 50
3 39 40 50
3 27 34 35
3 27 28 35
3 28 35 36
3 28 29 36
3 29 36 37
3 29 30 37
3 34 35 41
3 35 36 41
3 36 41 42
3 36 37 42
3 34 43 44
3 34 41 44
3 41 44 45
3 41 42 45
3 34 46 47
3 34 43 47
3 43 47 48
3 43 44 48
3 44 48 49
3 44 45 49
3 46 50 51
3 46 47 51
3 47 51 52
3 47 48 52
3 48 52 53
3 48 49 53
3 9 19 60
3 9 54 60
3 19 26 64
3 19 60 64
3 60 64 65
3 54 60 65
3 26 33 69
3 26 64 69
3 64 69 70
3 64 65 70
3 54 61 62
3 54 58 62
3 58 62 63
3 58 59 63
3 54 65 66
3 54 61 66
3 61 66 67
3 61 62 67
3 62 67 68
3 62 63 68
3 65 70 71
3 65 66 71
3 66 71 72
3 66 67 72
3 67 72 73
3 67 68 73
3 9 54 55
3 9 10 55
3 10 55 56
3 10 11 56
3 11 56 57
3 11 12 57
3 54 55 58
3 55 56 58
3 56 58 59
3 56 57 59
3 33 40 74
3 33 69 74
3 69 74 75
3 69 70 75
3 40 50 78
3 40 74 78
3 70 71 75
3 71 75 76
3 71 72 76
3 72 76 77
3 72 73 77
3 75 76 82
3 76 82 83
3 76 77 83
3 50 78 79
3 50 51 79
3 51 79 80
3 51 52 80
3 52 80 81
3 52 53 81
3 74 75 78
3 75 78 79
3 75 79 82
3 79 80 82
3 80 82 83
3 80 81 83
3 84 91 92
3 84 87 92
3 87 92 93
3 87 89 93
3 84 95 96
3 84 91 96
3 91 96 97
3 91 92 97
3 92 97 98
3 92 93 98
3 95 100 101
3 95 96 101
3 96 101 102
3 96 97 102
3 97 102 103
3 97 98 103
3 2 16 90
3 2 84 90
3 16 23 94
3 16 90 94
3 90 94 95
3 84 90 95
3 23 30 99
3 23 94 99
3 94 99 100
3 94 95 100
3 2 4 85
3 2 84 85
3 4 8 86
3 4 85 86
3 85 86 87
3 84 85 87
3 8 12 88
3 8 86 88
3 86 88 89
3 86 87 89
3 100 101 105
3 101 105 106
3 101 102 106
3 102 106 107
3 102 103 107
3 105 106 111
3 106 111 113
3 106 107 113
3 30 37 104
3 30 99 104
3 99 104 105
3 99 100 105
3 37 42 108
3 37 104 108
3 42 45 109
3 42 108 109
3 105 108 109
3 104 105 108
3 45 49 110
3 45 109 110
3 109 110 111
3 105 109 111
3 49 53 112
3 49 110 112
3 110 112 113
3 110 111 113
3 89 115 93
3 93 98 118
3 115 93 118
3 115 118 120
3 98 103 121
3 98 118 121
3 118 121 123
3 118 120 123
3 59 63 117
3 59 116 117
3 115 116 117
3 114 115 116
3 63 68 119
3 63 117 119
3 117 119 120
3 115 117 120
3 68 73 122
3 68 119 122
3 119 122 123
3 119 120 123
3 12 57 114
3 12 88 114
3 88 114 115
3 88 89 115
3 57 59 116
3 57 114 116
3 103 107 124
3 103 121 124
3 121 123 124
3 107 124 113
3 73 77 125
3 73 122 125
3 122 124 125
3 122 123 124
3 77 83 127
3 77 125 127
3 124 125 127
3 53 81 126
3 53 112 126
3 124 112 126
3 124 112 113
3 81 83 127
3 81 126 127
3 124 126 127
